<?xml version="1.0" standalone="no"?>
<!DOCTYPE svg PUBLIC "-//W3C//DTD SVG 1.1//EN" "http://www.w3.org/Graphics/SVG/1.1/DTD/svg11.dtd" >
<svg xmlns="http://www.w3.org/2000/svg">
<metadata></metadata>
<defs>
<font id="assiduoussmallcaps" horiz-adv-x="706" >
<font-face units-per-em="2048" ascent="1763" descent="-285" />
<missing-glyph horiz-adv-x="353" />
<glyph horiz-adv-x="0" />
<glyph unicode="&#xd;" horiz-adv-x="353" />
<glyph unicode=" "  horiz-adv-x="353" />
<glyph unicode="&#x09;" horiz-adv-x="353" />
<glyph unicode="&#xa0;" horiz-adv-x="353" />
<glyph unicode="!" horiz-adv-x="360" d="M43 0v186h174v-186h-174zM43 299v930h174v-930h-174z" />
<glyph unicode="&#x22;" horiz-adv-x="576" d="M38 1154v360h172v-186zM247 1154v360h186v-186z" />
<glyph unicode="#" horiz-adv-x="1053" d="M46 353v149h184v225h-184v152h184v230h174v-230h187v230h174v-230h186v-152h-186v-225h186v-149h-186v-230h-174v230h-187v-230h-174v230h-184zM404 502h187v225h-187v-225z" />
<glyph unicode="$" horiz-adv-x="718" d="M27 224v75h186v-149h74v388h-51q-84 0 -140 34q-68 39 -69 116v329q0 195 260 212v75h25v-75q259 -17 260 -212v-85h-185v150h-75v-394h75q70 0 122 -33q63 -41 63 -117v-314q0 -203 -260 -224v-63h-25v63q-259 20 -260 224zM213 688h74v394h-74v-394zM312 150h75v388 h-75v-388z" />
<glyph unicode="%" horiz-adv-x="812" d="M32 0l456 1169h190l-442 -1169h-204zM68 1019q0 67 43.5 109.5t110.5 42.5q58 0 94.5 -36t36.5 -96v-39q0 -56 -37.5 -87.5t-93.5 -31.5q-65 0 -109.5 38t-44.5 100zM353 150q0 65 45.5 106t110.5 41q131 0 131 -128v-8.5v-7v-3.5v-20v-4q0 -56 -36.5 -90t-94.5 -34 q-65 0 -110.5 41.5t-45.5 106.5z" />
<glyph unicode="&#x26;" d="M34 150v389q0 58 72 74q-2 0 -10 -2q10 0 10 2q-72 24 -72 73v319q0 123 92 181q67 43 168 43q109 0 179 -43q96 -58 95 -181v-73h-175v150h-185v-394h185v109h175v-109h132v-150h-132v-536l-360 -2q-65 0 -114 34q-60 41 -60 116zM208 150h185v388h-185v-388z" />
<glyph unicode="'" horiz-adv-x="354" d="M38 1154v360h174v-186z" />
<glyph unicode="(" horiz-adv-x="488" d="M17 150v932q0 72 62 113q51 34 112 34h149v-147h-149v-932h149v-150h-149q-174 17 -174 150z" />
<glyph unicode=")" horiz-adv-x="494" d="M15 0v150h149v932h-149v147h149q65 0 114 -34q60 -41 60 -113v-932q0 -135 -174 -150h-149z" />
<glyph unicode="*" horiz-adv-x="826" d="M38 433l174 175l-174 186h174l73 -74v210h188v-210l61 74h186l-186 -186l186 -175h-186l-61 76v-212h-188v212l-73 -76h-174z" />
<glyph unicode="+" horiz-adv-x="774" d="M38 546v137h221v247h188v-247h222v-137h-222v-249h-188v249h-221z" />
<glyph unicode="," horiz-adv-x="360" d="M36 -160v346h188v-174z" />
<glyph unicode="-" horiz-adv-x="542" d="M26 546v137h360v-137h-360z" />
<glyph unicode="." horiz-adv-x="346" d="M38 0v186h174v-186h-174z" />
<glyph unicode="/" horiz-adv-x="699" d="M27 0l352 1231h181l-352 -1231h-181z" />
<glyph unicode="0" horiz-adv-x="704" d="M27 224v781q0 123 92 181q68 43 169 43q273 0 273 -224v-780q0 -210 -273 -227q-261 14 -261 226zM201 152h188v932h-188v-932z" />
<glyph unicode="1" horiz-adv-x="496" d="M15 1080v149h323v-1229h-184v1080h-139z" />
<glyph unicode="2" horiz-adv-x="716" d="M27 0v539q0 75 65 116q51 32 121 33h174v392h-174v-148h-186v73q0 123 96 181q72 43 179 43q102 0 176 -43q97 -60 97 -181v-321q0 -73 -65 -114q-53 -32 -123 -32h-174v-390h174v149h188v-297h-548z" />
<glyph unicode="3" horiz-adv-x="718" d="M27 224v75h173v-151h187v390h-187l187 542h-187v-148h-173v297h546v-149l-150 -406h7q44 0 87 -29q56 -38 56 -107v-313q0 -210 -273 -227q-273 12 -273 226z" />
<glyph unicode="4" horiz-adv-x="846" d="M34 418v150l352 661h181v-661h134v-150h-134v-418h-180v418h-353zM200 568h187v420z" />
<glyph unicode="5" horiz-adv-x="704" d="M27 224v75h173v-151h187v391h-360v690h533v-297h-173v148h-187v-392h187q63 0 113 -34q60 -41 60 -116v-313q0 -210 -273 -227q-259 14 -260 226z" />
<glyph unicode="6" horiz-adv-x="703" d="M27 1005q0 123 92 181q68 43 169 43q273 0 273 -224v-73h-172v148h-188v-396h188q63 0 113 -32q60 -41 59 -116v-311q0 -210 -273 -227q-259 14 -259 226zM201 152h188v386h-188v-386z" />
<glyph unicode="7" horiz-adv-x="677" d="M27 0l345 1080h-174v-148h-171v297h533v-99l-362 -1130h-171z" />
<glyph unicode="8" horiz-adv-x="703" d="M27 224v312q0 51 72 75h-10h10q-72 20 -72 73v321q0 123 91 181q68 43 169 43q108 0 177 -43q96 -58 96 -181v-321q0 -55 -82 -73h7h-7q82 -17 82 -75v-311q0 -210 -273 -227q-259 12 -260 226zM198 152h174v386h-174v-386zM198 688h174v396h-174v-396z" />
<glyph unicode="9" horiz-adv-x="718" d="M27 684v321q0 123 98 181q73 43 179 43t177 -43q96 -58 96 -181v-780q0 -210 -273 -227q-275 14 -275 226v75h188v-151h174v388l-174 2q-68 0 -121 32q-68 41 -69 114zM217 688h174v396h-174v-396z" />
<glyph unicode=":" horiz-adv-x="325" d="M22 147v170h171v-170h-171zM22 910v158h171v-158h-171z" />
<glyph unicode=";" horiz-adv-x="331" d="M22 -2v319h171v-158zM22 910v170h171v-170h-171z" />
<glyph unicode="&#x3c;" horiz-adv-x="677" d="M38 608l346 322h186l-360 -322l360 -311h-186z" />
<glyph unicode="=" horiz-adv-x="790" d="M24 398v148h645v-148h-645zM24 683v148h645v-148h-645z" />
<glyph unicode="&#x3e;" horiz-adv-x="682" d="M38 297l360 311l-360 322h172l374 -322l-374 -311h-172z" />
<glyph unicode="?" horiz-adv-x="698" d="M27 932v73q0 123 94 181q72 43 181 43q99 0 167 -43q90 -58 91 -181v-317q0 -75 -60 -116q-48 -34 -113 -34h-85v-239h-188v239q0 75 65 116q53 34 123 34h85v392h-186v-148h-174zM114 0v186h188v-186h-188z" />
<glyph unicode="@" horiz-adv-x="974" d="M41 111v1017q0 113 136 113h531q137 0 137 -111v-857q0 -56 -48 -87q-39 -26 -87 -26h-63q-49 0 -89 26q-48 31 -48 87l2 290h-138v-403h-135v768q0 157 203 166q207 -14 207 -167v-654h61v857h-533v-1019h606v-111h-607q-135 15 -135 111zM374 676h136v307h-136v-307z " />
<glyph unicode="A" horiz-adv-x="718" d="M43 0v1292q0 212 273 222q275 -15 275 -224v-1290h-188v683h-174v-683h-186zM229 831h174v534h-174v-534z" />
<glyph unicode="B" horiz-adv-x="718" d="M43 0v1514h360q68 0 121 -34q67 -41 67 -115v-534q0 -32 -30 -51q-17 -14 -44 -19q-10 -3 -3 -3q2 0 24 -10q53 -20 53 -65v-536q0 -73 -67 -115q-53 -32 -121 -32h-360zM229 147h174v532h-174v-532zM229 829h174v535h-174v-535z" />
<glyph unicode="C" horiz-adv-x="709" d="M43 224v1066q0 213 273 224q275 -17 275 -224v-162h-190v237h-186v-1215h186v236h190v-161q0 -207 -275 -227q-273 15 -273 226z" />
<glyph unicode="D" d="M43 0v1514h358q67 0 114 -34q60 -41 60 -115v-1218q0 -73 -60 -115q-48 -32 -114 -32h-358zM215 147h186v1217h-186v-1217z" />
<glyph unicode="E" horiz-adv-x="662" d="M41 1364q0 73 61 116q51 34 113 34h360v-149h-360v-534h263v-148h-263v-533h360v-150h-358q-63 0 -113 34q-61 41 -61 116z" />
<glyph unicode="F" horiz-adv-x="672" d="M43 0v1364q0 73 61 116q49 34 111 34h360v-149h-360v-534h263v-148h-263v-683h-172z" />
<glyph unicode="G" horiz-adv-x="704" d="M43 224v1068q0 212 261 222q271 -15 271 -224v-162h-186v237h-174v-1215h174v533h-85v148h271v-606q0 -208 -271 -227q-261 15 -261 226z" />
<glyph unicode="H" d="M43 0v1514h172v-683h174v683h186v-1514h-186v683h-174v-683h-172z" />
<glyph unicode="I" horiz-adv-x="360" d="M43 0v1514h186v-1514h-186z" />
<glyph unicode="J" d="M43 224v162h172v-236h174v1215h-136v149h322v-1289q0 -207 -271 -227q-261 15 -261 226z" />
<glyph unicode="K" horiz-adv-x="749" d="M31 0v1514h186v-673l225 673h193l-253 -758l253 -756h-193l-225 671v-671h-186z" />
<glyph unicode="L" horiz-adv-x="672" d="M43 0v1514h186v-1364h174v321h188v-471h-548z" />
<glyph unicode="M" horiz-adv-x="894" d="M43 0v1514h186l174 -483l188 483h174v-1514h-174v1128l-188 -483l-174 483v-1128h-186z" />
<glyph unicode="N" d="M43 0v1514h172l174 -845v845h186v-1514h-186l-174 843v-843h-172z" />
<glyph unicode="O" horiz-adv-x="716" d="M43 224v1068q0 208 274 224q273 -15 274 -226v-1065q0 -207 -274 -227q-275 15 -274 226zM229 152h174v1217h-174v-1217z" />
<glyph unicode="P" horiz-adv-x="715" d="M43 0v1514h360q70 0 123 -34q65 -41 65 -115l-4 -536q0 -75 -63 -114q-51 -32 -121 -32h-174v-683h-186zM227 829h174v535h-174v-535z" />
<glyph unicode="Q" horiz-adv-x="716" d="M43 224v1068q0 212 273 222q275 -15 275 -224v-1065q0 -207 -275 -227q-273 15 -273 226zM229 -24h174v-184h-174v184zM229 152h174v1217h-174v-1217z" />
<glyph unicode="R" horiz-adv-x="737" d="M31 0v1514h360q70 0 123 -34q65 -41 65 -115v-534q0 -77 -69 -118l139 -713h-190l-133 681h-109v-681h-186zM215 829h174v535h-174v-535z" />
<glyph unicode="S" horiz-adv-x="716" d="M43 224v162h172v-236h186v533l-186 1q-61 0 -109 33q-63 41 -63 114v459q0 213 273 224q275 -17 275 -224v-162h-190v237h-186v-534h186q68 0 123 -34q67 -41 67 -114v-458q0 -207 -275 -227q-273 15 -273 226z" />
<glyph unicode="T" horiz-adv-x="686" d="M43 1365v149h532v-149h-172v-1365h-188v1365h-172z" />
<glyph unicode="U" d="M43 224v1290h172v-1364h186v1364h174v-1289q0 -208 -271 -227q-261 15 -261 226z" />
<glyph unicode="V" horiz-adv-x="687" d="M43 1514h172l89 -1128l97 1128h174l-174 -1514h-186z" />
<glyph unicode="W" horiz-adv-x="889" d="M43 1514h172v-1081l113 572h136l111 -572v1081h186l-36 -1514h-186l-150 756l-136 -756h-173z" />
<glyph unicode="X" horiz-adv-x="699" d="M43 0l172 756l-172 758h172l101 -471l85 471h174l-174 -758l174 -756h-174l-85 471l-101 -471h-172z" />
<glyph unicode="Y" horiz-adv-x="704" d="M43 893v621h172v-683h186v683h174v-621q0 -101 -72 -152q-26 -19 -102 -46v-695h-186v695q-75 26 -101 46q-72 51 -71 152z" />
<glyph unicode="Z" horiz-adv-x="704" d="M43 0v150l358 1215h-186v-322h-172v471h532v-149l-360 -1215h186v321h174v-471h-532z" />
<glyph unicode="[" horiz-adv-x="477" d="M15 0v1229h309v-147h-135v-932h135v-150h-309z" />
<glyph unicode="\" horiz-adv-x="687" d="M27 1231h180l353 -1231h-181z" />
<glyph unicode="]" horiz-adv-x="496" d="M17 0v150h137v932h-137v147h323v-1229h-323z" />
<glyph unicode="^" horiz-adv-x="703" d="M38 1079l259 435l273 -435h-186l-87 162l-87 -162h-172z" />
<glyph unicode="_" horiz-adv-x="716" d="M0 0v148h546v-148h-546z" />
<glyph unicode="`" horiz-adv-x="559" d="M38 1328v150l395 -75v-137z" />
<glyph unicode="a" horiz-adv-x="718" d="M43 0v1007q0 121 94 177q70 43 175 43h4q104 0 176 -43q97 -58 97 -179v-1005h-186v539h-174v-539h-186zM229 688h174v392h-174v-392z" />
<glyph unicode="b" horiz-adv-x="718" d="M43 0v1229h360q67 0 121 -34q65 -41 65 -113v-393q0 -55 -82 -73h7h-7q82 -19 82 -75v-393q0 -73 -65 -114q-53 -34 -121 -34h-360zM229 148h174v390h-174v-390zM229 688h174v391h-174v-391z" />
<glyph unicode="c" horiz-adv-x="709" d="M43 224v771q0 118 78 179q72 55 191 55q116 0 191 -51q84 -60 84 -173v-73h-186v150h-186v-932h186v149h186v-75q0 -177 -203 -215q-44 -9 -68 -9t-67 7q-207 36 -206 217z" />
<glyph unicode="d" d="M43 0v1229h358q70 0 122 -39.5t52 -107.5v-934q0 -70 -51 -109t-123 -39h-358zM213 148h188v932h-188v-932z" />
<glyph unicode="e" horiz-adv-x="662" d="M41 1079q0 73 61 116q49 34 113 34h360v-147h-360v-394h261v-150h-261v-388h360v-150h-358q-63 0 -113 34q-61 41 -61 116z" />
<glyph unicode="f" horiz-adv-x="672" d="M43 0v1079q0 73 61 116q48 34 109 34h362v-147h-362v-394h263v-150h-263v-538h-170z" />
<glyph unicode="g" horiz-adv-x="704" d="M43 224v783q0 213 259 222q273 -17 273 -224v-73h-188v150h-174v-932h174v388h-85v150h273v-463q0 -207 -273 -227q-259 17 -259 226z" />
<glyph unicode="h" d="M43 0v1229h170v-541h174v541h188v-1229h-188v538h-174v-538h-170z" />
<glyph unicode="i" horiz-adv-x="360" d="M43 0v1229h187v-1229h-187z" />
<glyph unicode="j" d="M43 224v75h172v-149h174v932h-136v147h307v-1004q0 -208 -256 -227q-261 15 -261 226z" />
<glyph unicode="k" horiz-adv-x="749" d="M31 0v1229h186v-541l225 541h193l-253 -615l253 -614h-193l-225 538v-538h-186z" />
<glyph unicode="l" horiz-adv-x="672" d="M43 0v1229h186v-1079h174v232h188v-382h-548z" />
<glyph unicode="m" horiz-adv-x="894" d="M43 0v1229h186l174 -393l188 393h172v-1229h-172v874l-188 -393l-174 393v-874h-186z" />
<glyph unicode="n" d="M43 0v1229h172l174 -642v642h186v-1229h-186l-174 645v-645h-172z" />
<glyph unicode="o" horiz-adv-x="716" d="M43 224v781q0 208 274 224q273 -15 274 -225v-779q0 -207 -274 -227q-275 15 -274 226zM229 152h174v930h-174v-930z" />
<glyph unicode="p" horiz-adv-x="715" d="M43 0v1229h360q70 0 123 -34q63 -41 63 -113v-394q0 -75 -63 -116q-53 -32 -123 -33h-174v-539h-186zM227 686h174v393h-174v-393z" />
<glyph unicode="q" horiz-adv-x="716" d="M43 224v783q0 213 273 222q273 -17 273 -224v-780q0 -205 -273 -227q-273 17 -273 226zM229 -24h174v-184h-174v184zM229 152h174v932h-174v-932z" />
<glyph unicode="r" horiz-adv-x="737" d="M31 0v1229h362q68 0 121 -34q65 -41 65 -115v-391q0 -77 -69 -119l139 -570h-190l-133 539h-108v-539h-187zM215 688h174v391h-174v-391z" />
<glyph unicode="s" horiz-adv-x="716" d="M43 224v75h172v-149h186v388h-186q-60 0 -109 34q-63 41 -63 116v317q0 215 273 224q275 -19 275 -224v-73h-190v150h-186v-394h186q68 0 123 -34q67 -43 67 -116v-313q0 -205 -275 -227q-273 17 -273 226z" />
<glyph unicode="t" horiz-adv-x="686" d="M43 1082v147h532v-147h-172v-1082h-190v1082h-170z" />
<glyph unicode="u" d="M43 224v1005h172v-1079h186v1079h174v-1004q0 -207 -273 -227q-259 17 -259 226z" />
<glyph unicode="v" horiz-adv-x="687" d="M43 1229h170l89 -843l99 843h174l-174 -1229h-188z" />
<glyph unicode="w" horiz-adv-x="889" d="M43 1229h172v-790l113 377h136l111 -377v790h186l-36 -1229h-187l-149 529l-138 -529h-171z" />
<glyph unicode="x" horiz-adv-x="699" d="M43 0l170 614l-170 615h170l101 -382l87 382h174l-174 -615l174 -614h-174l-87 382l-101 -382h-170z" />
<glyph unicode="y" horiz-adv-x="704" d="M43 751v478h170v-540h188v540h174v-478q0 -101 -72 -154q-20 -15 -102 -46v-551h-188v551q-79 29 -100 46q-70 53 -70 154z" />
<glyph unicode="z" horiz-adv-x="704" d="M43 0v150l358 932h-186v-235h-172v382h532v-147l-360 -932h186v232h174v-382h-532z" />
<glyph unicode="{" horiz-adv-x="488" d="M15 611q61 65 62 142v290q7 70 15 94q14 43 62 92h186q-51 -51 -67 -92q-10 -31 -10 -94v-275q0 -49 -10 -75q-14 -36 -64 -82q48 -46 64 -85q10 -27 10 -82v-256q0 -63 10 -94q16 -39 67 -94h-186q-48 53 -62 94q-9 26 -15 94v273q0 85 -62 150z" />
<glyph unicode="|" horiz-adv-x="361" d="M10 -285v1514h188v-1514h-188z" />
<glyph unicode="}" horiz-adv-x="489" d="M15 0q49 55 64 94q9 29 8 94v239q0 65 10 92q14 43 67 92q-53 49 -67 87q-10 27 -10 87v258q0 67 -8 94q-14 41 -64 92h185q49 -51 65 -92q10 -31 10 -94v-277q0 -87 63 -155q-63 -68 -63 -164v-259q0 -63 -10 -94q-14 -39 -65 -94h-185z" />
<glyph unicode="~" horiz-adv-x="704" d="M38 671l172 174l186 -63l75 63h99l-174 -174l-186 75l-73 -75h-99z" />
<glyph unicode="&#xa1;" horiz-adv-x="360" d="M43 -285v930h174v-930h-174zM43 758v186h174v-186h-174z" />
<glyph unicode="&#xa2;" horiz-adv-x="682" d="M38 224v769q0 131 92 191q67 44 167 45h26v61h75l-14 -73q186 -31 186 -212v-75h-172v150h-26l-75 -932h101v149h172v-73q0 -212 -273 -224l-12 -61h-75l14 73q-186 43 -186 212zM210 148h26l61 932h-87v-932z" />
<glyph unicode="&#xa3;" horiz-adv-x="762" d="M31 538v150h66v319q0 123 92 179q68 43 171 43q108 0 179 -43q94 -56 94 -179v-75h-174v150h-188v-394h203v-150h-203v-378h362v-160h-537v538h-65z" />
<glyph unicode="&#xa4;" horiz-adv-x="554" d="M38 620l35 37q-24 53 -24 99q0 72 24 99l-35 51l49 50l38 -38q43 20 99 24q39 -2 111 -24l37 38l50 -50l-38 -51q19 -15 26 -99q-5 -61 -26 -99l38 -37l-50 -62l-37 50q-43 -26 -89 -26q-12 0 -22 2q-10 -2 -21 -2q-44 0 -78 26l-38 -50zM125 746q0 -89 90 -89h9.5h9.5 q101 0 101 99q0 106 -111 113q-99 -7 -99 -103v-10v-10z" />
<glyph unicode="&#xa5;" horiz-adv-x="704" d="M43 323v148h186v50h-186v148h186v26q-77 22 -111 46q-75 51 -75 152v621h186v-683h174v683h186v-621q0 -101 -75 -152q-32 -22 -111 -46v-26h186v-148h-186v-50h186v-148h-186v-323h-174v323h-186z" />
<glyph unicode="&#xa6;" horiz-adv-x="360" d="M36 0v720h188v-720h-188zM36 1043v720h188v-720h-188z" />
<glyph unicode="&#xa7;" horiz-adv-x="692" d="M27 225v17h186v-90h174v212h-174q-67 0 -121 35q-65 43 -65 115v496q0 213 273 222q275 -17 275 -223v-9h-188v85h-174v-216h174q70 0 123 -34q65 -41 65 -115v-493q0 -205 -275 -227q-273 17 -273 225zM213 515h174v207h-174v-207z" />
<glyph unicode="&#xa8;" horiz-adv-x="585" d="M38 1266v174h186v-174h-186zM261 1266v174h172v-174h-172z" />
<glyph unicode="&#xa9;" horiz-adv-x="793" d="M38 311v892q0 65 99 75h435q87 -9 87 -68v-7v-892v-7q0 -68 -87 -68h-410q-125 0 -124 75zM125 311h447v892h-447v-892zM212 483v546q0 99 119 99h17.5h16.5q119 0 120 -99v-87h-99v125h-87v-620h87v123h99v-87q0 -99 -137 -99t-136 99z" />
<glyph unicode="&#xaa;" horiz-adv-x="430" d="M14 831v38h259v-38h-259zM14 893v517q0 104 129 104q130 0 130 -106v-515h-89v257h-82v-257h-88zM102 1220h82v224h-82v-224z" />
<glyph unicode="&#xab;" horiz-adv-x="810" d="M38 608l174 186h186l-186 -186l186 -175h-186zM323 608l186 186h174l-174 -186l174 -175h-174z" />
<glyph unicode="&#xac;" horiz-adv-x="819" d="M38 683v148h645v-360h-186v212h-459z" />
<glyph unicode="&#xad;" horiz-adv-x="542" d="M26 546v137h360v-137h-360z" />
<glyph unicode="&#xae;" horiz-adv-x="737" d="M31 0v1229h360q67 0 121 -34q65 -41 65 -113v-394q0 -49 -82 -74q0 -2 7 -1h-7q82 -14 82 -75v-390q-3 -22 -4 -46q0 -66 26 -102h-174q-34 38 -34 138v12v388h-174v-538h-186zM217 688h174v394h-174v-394z" />
<glyph unicode="&#xaf;" horiz-adv-x="353" />
<glyph unicode="&#xb0;" horiz-adv-x="1527" d="M17 756l82 82l-31 99l130 2l61 59l-100 140q189 145 425 185l179 181l186 -186q224 -46 404 -185l-90 -129l247 -248l-88 -89q-14 -70 -67 -122t-123 -67l-469 -468l-473 471h-82l-39 125zM61 754l91 -88l-43 136zM113 905l119 -395h56l69 159l70 -159h59l101 348l7 -346 h121v150h101l1 -148h128l-5 394h-126l2 -131h-101v131l-252 -2l-43 -148l-68 124l-64 -133l-46 156h-129zM207 1130l134 -186l7 13l10 -17q177 121 396 122q207 0 383 -113q24 5 42 5h9l118 171q-249 177 -555 177q-300 0 -544 -172zM246 939h19l29 -96l30 63l-46 65z M256 1123q60 43 89 43q38 0 65 -27.5t27 -65.5q0 -48 -75 -98zM317 498l81 -80q27 27 90 27q65 0 132 -66q67 67 143 66q87 0 153 -63q60 61 125 62q56 0 87 -24l53 53q-133 2 -205 112l2 -99l-196 -1l-2 141h-26v-141l-194 -2l-4 148l-42 -148h-110l-47 104zM326 1111 l49 -70q12 14 12 31q0 44 -44 44q-9 0 -17 -5zM375 910l38 -69l27 99l313 2l1 -130l24 -1l-1 131h196l2 -102q40 68 117 97q-157 90 -338 90q-210 0 -379 -117zM420 398l341 -343l347 344q-24 15 -60 16q-58 0 -103 -43l-179 -181l-181 181q-44 44 -102 44q-44 0 -63 -18z M435 1150q0 39 28.5 67.5t68.5 28.5q39 0 68.5 -28.5t29.5 -67.5q0 -41 -28.5 -69t-67.5 -28q-41 0 -70 28t-29 69zM486 1150q0 -48 48 -47q46 -1 46 47q0 46 -48 46q-46 0 -46 -46zM637 1331q56 7 114 7q71 0 143 -10l-131 129zM638 360l128 -128l132 132q-58 55 -135 54 q-67 0 -125 -58zM638 1181q0 41 28.5 68.5t67.5 27.5q21 0 36 -9v-46q-17 5 -34 5q-48 0 -48 -46q0 -48 48 -48h13q9 0 19 5v-46q-15 -7 -32 -7q-39 0 -68.5 27.5t-29.5 68.5zM783 1225l5 45l128 -14l-5 -44l-37 3l-14 -133l-53 5l16 135zM896 1142q0 41 28 69t69 28 q39 0 68.5 -29t29.5 -68q0 -41 -28.5 -69.5t-69.5 -28.5q-39 0 -68 29.5t-29 68.5zM945 1142q0 -48 48 -48t48 48t-48 48t-48 -48zM976 713q0 -84 61.5 -144t145.5 -60q85 0 145 59.5t60 144.5q0 84 -61.5 144.5t-147.5 60.5q-85 0 -144 -59.5t-59 -145.5zM1056 1026l81 158 q32 -15 63 -30q39 -24 39 -55q0 -55 -58 -55l3 -83l-51 27l-3 75l-31 -58zM1101 713q0 34 24 58t58 24q32 0 57 -24t25 -58t-24 -58t-58 -24q-32 0 -57 24t-25 58zM1130 713q0 -53 53 -53t53 53t-53 53t-53 -53zM1145 1096q22 -10 26 -11q17 1 17 18q0 10 -27 23zM1225 949 q38 -7 72 -26l-53 53zM1396 824q27 -51 29 -107l39 39z" />
<glyph unicode="&#xb1;" horiz-adv-x="793" d="M38 111v150h645v-150h-645zM38 546v137h235v247h174v-247h236v-137h-236v-249h-174v249h-235z" />
<glyph unicode="&#xb2;" horiz-adv-x="442" d="M24 756v336q0 73 87 74h99v273h-99v-125h-87v87q0 99 136 113q137 -12 137 -113v-235q0 -65 -87 -74h-99v-261h99v125h87v-200h-273z" />
<glyph unicode="&#xb3;" horiz-adv-x="426" d="M38 869v73h87v-111h85v261h-85l85 347h-85v-125h-87v200h259v-75l-73 -273q73 -5 73 -74v-223q0 -113 -137 -113q-123 0 -122 113z" />
<glyph unicode="&#xb4;" horiz-adv-x="578" d="M38 1265v136l395 75v-148z" />
<glyph unicode="&#xb5;" horiz-adv-x="720" d="M24 -273v1502h186v-1081h174v1081h186v-1081q0 -68 -65 -105q-51 -31 -121 -31h-174v-285h-186z" />
<glyph unicode="&#xb6;" d="M27 538v541q0 75 65 116q53 34 121 34h360v-74h-87v-1155h-99v1155h-87v-1155h-87v403h-10q-67 -2 -116 29q-60 38 -60 106z" />
<glyph unicode="&#xb8;" horiz-adv-x="395" d="M10 -49l99 -38h38v38l-74 35v38h74l75 -73v-76l-113 -25l-99 25v76z" />
<glyph unicode="&#xb9;" horiz-adv-x="334" d="M24 1439v75h162v-758h-87v683h-75z" />
<glyph unicode="&#xba;" horiz-adv-x="443" d="M38 831v38h273v-38h-273zM38 1005v396q0 101 136 113q137 -14 137 -113v-396q0 -96 -137 -112q-137 17 -136 112zM125 968h87v471h-87v-471z" />
<glyph unicode="&#xbb;" horiz-adv-x="802" d="M22 433l186 175l-186 186h186l174 -186l-174 -175h-186zM309 433l186 175l-186 186h186l172 -186l-172 -175h-186z" />
<glyph unicode="&#xbc;" horiz-adv-x="491" d="M38 212v61l174 434h85v-434h75v-61h-75v-250h-85v250h-174zM38 744v38h334v-38h-334zM111 273h101v261zM111 1502v61h162v-744h-87v683h-75z" />
<glyph unicode="&#xbd;" horiz-adv-x="489" d="M38 744v38h334v-38h-334zM75 -38v337q0 73 128 73h24.5h19.5v261h-85v-112h-87v75q0 111 137 111q123 0 123 -111v-224q0 -75 -108 -75h-34q-22 2 -31 2v-273h85v122h88v-186h-260zM111 1502v61h162v-744h-87v683h-75z" />
<glyph unicode="&#xbe;" horiz-adv-x="496" d="M38 212v61l174 434h85v-434h75v-61h-75v-250h-85v250h-174zM38 744v38h334v-38h-334zM75 930v75h87v-111h85v260h-85l85 348h-85v-125h-87v186h260v-61l-62 -273q61 -7 62 -65v-10v-224q0 -111 -123 -111q-137 0 -137 111zM111 273h101v261z" />
<glyph unicode="&#xbf;" horiz-adv-x="694" d="M27 222v317v14q0 68 60 106q49 31 113 30h83v239h188v-239q0 -75 -63 -116q-53 -34 -125 -34h-83v-392h186v150h174v-75q0 -121 -94 -179q-72 -43 -183 -43q-99 0 -165 43q-90 58 -91 179zM283 1043v186h188v-186h-188z" />
<glyph unicode="&#xc0;" horiz-adv-x="718" d="M43 0v1292q0 210 259 224q273 -12 273 -224v-1292h-174v683h-186v-683h-172zM104 1615v148l398 -75v-137zM215 833h186v532h-186v-532z" />
<glyph unicode="&#xc1;" horiz-adv-x="718" d="M43 0v1292q0 212 259 224q273 -12 273 -224v-1292h-186v683h-174v-683h-172zM104 1551v137l398 75v-148zM215 833h174v532h-174v-532z" />
<glyph unicode="&#xc2;" horiz-adv-x="718" d="M43 0v1292q0 212 259 224q273 -12 273 -224v-1292h-186v683h-174v-683h-172zM104 1551v137l198 75l200 -75v-137l-200 64zM215 833h174v532h-174v-532z" />
<glyph unicode="&#xc3;" horiz-adv-x="718" d="M43 0v1292q0 121 97 179q72 43 176 43q106 0 177 -43q96 -58 96 -179v-1292h-186v683h-174v-683h-186zM80 1551l149 137l174 -73l75 73h73l-148 -137l-174 64l-74 -64h-75zM229 833h174v532h-174v-532z" />
<glyph unicode="&#xc4;" horiz-adv-x="718" d="M43 0v1292q0 210 273 224q273 -12 273 -224v-1292h-186v683h-174v-683h-186zM118 1551v174h186v-174h-186zM229 833h174v532h-174v-532zM329 1551v174h186v-174h-186z" />
<glyph unicode="&#xc5;" horiz-adv-x="718" d="M43 0v1292q0 113 83 171q73 51 190 51q116 0 189 -51q84 -60 84 -171v-1292h-186v683h-174v-683h-186zM203 1638q0 82 84 106q20 7 29 7q44 0 77.5 -34.5t33.5 -78.5q0 -111 -111 -111q-113 0 -113 111zM229 833h174v532h-174v-532zM241 1628q0 -77 75 -77t75 77v21 q0 65 -75 64q-75 0 -75 -64v-21z" />
<glyph unicode="&#xc6;" horiz-adv-x="1024" d="M43 0v1292q0 121 95 179q72 43 178 43h621v-149h-348v-532h247v-150h-247v-533h348v-150h-534v683h-174v-683h-186zM229 833h174v532h-174v-532z" />
<glyph unicode="&#xc7;" horiz-adv-x="709" d="M43 236v1068q0 123 95 181q70 43 178 42q104 0 176 -42q97 -58 97 -181v-162h-186v237h-174v-1217h174v236h186v-162q0 -177 -237 -224l63 -61v-76l-99 -35l-113 35v76l113 -38h36v38l-74 37v24q-236 43 -235 224z" />
<glyph unicode="&#xc8;" horiz-adv-x="662" d="M41 150v1215q0 73 63 116q49 34 109 35h374v-151h-374v-532h261v-150h-261v-533h374v-150h-374q-172 19 -172 150zM114 1615v148l398 -75v-137z" />
<glyph unicode="&#xc9;" horiz-adv-x="662" d="M41 150v1215q0 73 61 116q51 34 111 35h360v-151h-360v-532h261v-150h-261v-533h360v-150h-360q-172 19 -172 150zM114 1551v137l386 75v-148z" />
<glyph unicode="&#xca;" horiz-adv-x="662" d="M41 150v1215q0 73 61 116q49 34 111 35h360v-151h-360v-532h261v-150h-261v-533h360v-150h-360q-172 17 -172 150zM114 1551v137l186 75l200 -75v-137l-200 64z" />
<glyph unicode="&#xcb;" horiz-adv-x="662" d="M41 150v1215q0 73 60 116q51 34 112 35h360v-151h-360v-532h261v-150h-261v-533h360v-150h-360q-172 17 -172 150zM102 1551v174h186v-174h-186zM326 1551v174h174v-174h-174z" />
<glyph unicode="&#xcc;" horiz-adv-x="360" d="M43 1615v148l385 -75v-137zM142 0v1516h187v-1516h-187z" />
<glyph unicode="&#xcd;" horiz-adv-x="360" d="M43 1551v137l396 75v-148zM154 0v1516h174v-1516h-174z" />
<glyph unicode="&#xce;" horiz-adv-x="360" d="M43 1551v137l198 75l198 -75v-137l-198 64zM154 0v1516h174v-1516h-174z" />
<glyph unicode="&#xcf;" horiz-adv-x="360" d="M43 1551v174h174v-174h-174zM142 0v1514h186v-1514h-186zM254 1551v174h174v-174h-174z" />
<glyph unicode="&#xd0;" horiz-adv-x="793" d="M38 683v150h87v681h360q63 0 112 -34q61 -41 62 -115v-1215q0 -133 -174 -150h-360v683h-87zM299 150h186v1215h-186v-532h87v-150h-87v-533z" />
<glyph unicode="&#xd1;" d="M43 0v1514h172l186 -843v843h174v-1514h-174l-186 845v-845h-172zM79 1551l136 137l186 -73l75 73h62l-137 -137l-186 64l-73 -64h-63z" />
<glyph unicode="&#xd2;" horiz-adv-x="716" d="M43 224v1066q0 123 90 181q68 43 169 43q108 0 179 -43q94 -58 94 -181v-1066q0 -207 -273 -224q-259 17 -259 224zM104 1613v148l398 -73v-137zM215 150h174v1215h-174v-1215z" />
<glyph unicode="&#xd3;" horiz-adv-x="716" d="M43 224v1066q0 123 90 181q68 43 169 43q108 0 179 -43q94 -58 94 -181v-1066q0 -207 -273 -224q-259 17 -259 224zM104 1551v137l398 73v-148zM215 150h174v1215h-174v-1215z" />
<glyph unicode="&#xd4;" horiz-adv-x="716" d="M43 224v1066q0 123 97 181q72 43 176 43q106 0 177 -43q96 -58 96 -181v-1066q0 -207 -273 -224q-273 17 -273 224zM118 1551v137l198 73l198 -73v-137l-198 62zM229 150h174v1215h-174v-1215z" />
<glyph unicode="&#xd5;" horiz-adv-x="716" d="M43 224v1066q0 123 97 181q72 43 176 43q106 0 177 -43q96 -58 96 -181v-1066q0 -207 -273 -224q-273 17 -273 224zM80 1551l149 137l174 -75l75 75h73l-148 -137l-174 62l-74 -62h-75zM229 150h174v1215h-174v-1215z" />
<glyph unicode="&#xd6;" horiz-adv-x="716" d="M43 224v1066q0 123 95 181q72 43 178 43q104 0 176 -43q97 -58 97 -181v-1066q0 -207 -273 -224q-273 17 -273 224zM118 1551v174h186v-174h-186zM229 150h174v1215h-174v-1215zM328 1551v174h186v-174h-186z" />
<glyph unicode="&#xd7;" horiz-adv-x="800" d="M38 299l235 310l-235 323h186l136 -200l149 200h174l-236 -323l236 -310h-174l-149 186l-136 -186h-186z" />
<glyph unicode="&#xd8;" horiz-adv-x="704" d="M38 -61l35 148q-36 60 -35 137v1080q0 210 259 210q118 0 174 -36l26 111h73l-36 -161q36 -46 36 -124v-1080q0 -212 -273 -212q-41 0 -160 26l-38 -99h-61zM210 148h188v808l-188 -633v-175zM210 572l188 633v172h-188v-805z" />
<glyph unicode="&#xd9;" d="M43 224v1290h172v-1366h174v1366h186v-1290q0 -212 -273 -224q-259 12 -259 224zM104 1615v148l398 -75v-137z" />
<glyph unicode="&#xda;" d="M43 224v1292h172v-1366h174v1366h186v-1292q0 -207 -273 -224q-259 17 -259 224zM104 1551v137l398 75v-148z" />
<glyph unicode="&#xdb;" d="M43 224v1292h186v-1366h174v1366h186v-1292q0 -207 -273 -224q-273 17 -273 224zM118 1551v137l198 75l199 -75v-137l-199 64z" />
<glyph unicode="&#xdc;" d="M43 224v1292h186v-1366h174v1366h186v-1292q0 -207 -273 -224q-273 17 -273 224zM118 1551v174h186v-174h-186zM329 1551v174h186v-174h-186z" />
<glyph unicode="&#xdd;" horiz-adv-x="704" d="M43 894v622h186v-683h174v683h186v-622q0 -101 -75 -153q-31 -20 -111 -45v-696h-174v696q-79 22 -111 45q-75 51 -75 153zM118 1551v137l396 75v-148z" />
<glyph unicode="&#xde;" horiz-adv-x="698" d="M38 0v1514h186v-359h172q188 0 188 -150v-495q0 -150 -188 -150h-172v-360h-186zM224 510h172v483h-172v-483z" />
<glyph unicode="&#xdf;" horiz-adv-x="718" d="M27 0v1007q0 121 94 179q72 43 181 43q102 0 174 -43q97 -58 97 -179v-318q0 -55 -83 -75h8h-8q84 -19 83 -76v-390q0 -73 -66 -114q-53 -34 -121 -34h-161v148h161v391h-161v149h161v392h-186v-1080h-173z" />
<glyph unicode="&#xe0;" horiz-adv-x="718" d="M43 0v1007q0 121 94 177q70 43 175 43h4q104 0 176 -43q97 -58 97 -179v-1005h-186v539h-174v-539h-186zM116 1326v150l398 -75v-136zM229 688h174v392h-174v-392z" />
<glyph unicode="&#xe1;" horiz-adv-x="718" d="M43 0v1007q0 121 94 177q70 43 175 43h4q104 0 176 -43q97 -58 97 -179v-1005h-186v539h-174v-539h-186zM116 1265v136l398 75v-150zM229 688h174v392h-174v-392z" />
<glyph unicode="&#xe2;" horiz-adv-x="718" d="M43 0v1007q0 121 94 177q70 43 175 43h4q106 0 177 -43q97 -58 98 -179v-1005h-187v539h-174v-539h-187zM118 1266v137l198 73l198 -73v-137l-198 62zM230 688h174v392h-174v-392z" />
<glyph unicode="&#xe3;" horiz-adv-x="718" d="M43 0v1007q0 121 94 177q70 43 175 43h4q104 0 176 -43q97 -58 97 -179v-1005h-186v539h-174v-539h-186zM79 1265l150 138l174 -77l73 77h75l-148 -138l-174 61l-74 -61h-76zM229 688h174v392h-174v-392z" />
<glyph unicode="&#xe4;" horiz-adv-x="718" d="M43 0v1007q0 121 94 177q70 43 175 43h4q104 0 176 -43q97 -58 97 -179v-1005h-186v539h-174v-539h-186zM123 1265v174h174v-174h-174zM229 688h174v392h-174v-392zM333 1265v174h174v-174h-174z" />
<glyph unicode="&#xe5;" horiz-adv-x="718" d="M43 0v1007q0 220 273 220q116 0 189 -51q84 -60 84 -171v-1005h-186v539h-174v-539h-186zM205 1353q0 99 97 99h24q102 0 102 -99q0 -113 -112 -112q-111 0 -111 112zM229 688h174v392h-174v-392zM244 1341q0 -77 72 -76q38 0 62.5 25t24.5 63q0 73 -86 74q-73 0 -73 -65 v-21z" />
<glyph unicode="&#xe6;" horiz-adv-x="1025" d="M43 0v1007q0 121 95 179q72 43 179 43h622v-149h-348v-392h247v-149h-247v-391h348v-148h-536v539h-174v-539h-186zM229 688h174v392h-174v-392z" />
<glyph unicode="&#xe7;" horiz-adv-x="709" d="M43 236v771q0 123 95 179q72 43 179 43q104 0 176 -43q97 -58 98 -179v-73h-188v146h-174v-918h174v137h188v-63q0 -177 -239 -224l64 -61v-76l-99 -34l-112 34v76l112 -38h35v38l-74 37v24q-236 43 -235 224z" />
<glyph unicode="&#xe8;" horiz-adv-x="662" d="M41 1079q0 73 61 116q49 34 113 34h360v-147h-360v-394h261v-150h-261v-388h360v-150h-358q-63 0 -113 34q-61 41 -61 116zM116 1329v149l398 -75v-135z" />
<glyph unicode="&#xe9;" horiz-adv-x="662" d="M41 1079q0 73 61 116q49 34 113 34h360v-147h-360v-394h261v-150h-261v-388h360v-150h-358q-63 0 -113 34q-61 41 -61 116zM116 1268v135l386 75v-149z" />
<glyph unicode="&#xea;" horiz-adv-x="662" d="M41 1079q0 73 61 116q49 34 113 34h360v-147h-360v-394h261v-150h-261v-388h360v-150h-358q-63 0 -113 34q-61 41 -61 116zM116 1268v135l186 75l200 -75v-135l-200 61z" />
<glyph unicode="&#xeb;" horiz-adv-x="662" d="M41 1079q0 73 61 116q49 34 113 34h360v-147h-360v-394h261v-150h-261v-388h360v-150h-358q-63 0 -113 34q-61 41 -61 116zM104 1268v174h186v-174h-186zM328 1268v174h174v-174h-174z" />
<glyph unicode="&#xec;" horiz-adv-x="360" d="M43 1328v148l385 -75v-135zM142 0v1229h187v-1229h-187z" />
<glyph unicode="&#xed;" horiz-adv-x="360" d="M43 1266v135l394 75v-148zM147 0v1229h186v-1229h-186z" />
<glyph unicode="&#xee;" horiz-adv-x="360" d="M43 1266v135l198 75l196 -75v-135l-196 62zM147 0v1229h186v-1229h-186z" />
<glyph unicode="&#xef;" horiz-adv-x="360" d="M43 1268v174h174v-174h-174zM142 0v1229h186v-1229h-186zM254 1268v174h174v-174h-174z" />
<glyph unicode="&#xf0;" horiz-adv-x="803" d="M31 538v151h88v540h361q63 0 112 -34q61 -41 62 -115v-932q0 -73 -62 -114q-49 -34 -112 -34h-361v538h-88zM294 148h186v932h-186v-391h85v-151h-85v-390z" />
<glyph unicode="&#xf1;" d="M43 0v1229h170l174 -642v642h188v-1229h-188l-174 645v-645h-170zM72 1266l150 137l174 -75l73 75h75l-148 -137l-174 62l-74 -62h-76z" />
<glyph unicode="&#xf2;" horiz-adv-x="716" d="M43 224v781q0 207 274 224q273 -17 274 -225v-779q0 -205 -274 -227q-275 17 -274 226zM119 1326v150l398 -75v-136zM229 152h174v930h-174v-930z" />
<glyph unicode="&#xf3;" horiz-adv-x="716" d="M43 224v781q0 207 274 224q271 -17 272 -225v-779q0 -205 -272 -227q-275 17 -274 226zM119 1265v136l396 75v-150zM229 152h174v930h-174v-930z" />
<glyph unicode="&#xf4;" horiz-adv-x="716" d="M43 224v781q0 207 274 224q273 -17 274 -225v-779q0 -205 -274 -227q-275 17 -274 226zM118 1266v137l199 73l198 -73v-137l-198 62zM229 152h174v930h-174v-930z" />
<glyph unicode="&#xf5;" horiz-adv-x="716" d="M43 224v781q0 212 259 224q273 -12 273 -224v-781q0 -212 -273 -224q-259 12 -259 224zM79 1266l136 137l174 -75l75 75h75l-150 -137l-174 62l-73 -62h-63zM215 148h174v932h-174v-932z" />
<glyph unicode="&#xf6;" horiz-adv-x="716" d="M43 224v781q0 207 274 224q271 -17 272 -225v-779q0 -205 -272 -227q-275 17 -274 226zM125 1265v174h174v-174h-174zM229 152h174v930h-174v-930zM336 1265v174h174v-174h-174z" />
<glyph unicode="&#xf7;" horiz-adv-x="776" d="M24 546v137h645v-137h-645zM259 297v174h188v-174h-188zM259 758v172h188v-172h-188z" />
<glyph unicode="&#xf8;" horiz-adv-x="718" d="M38 -61l49 136q-49 72 -49 149v781q0 212 273 224q85 -7 160 -38l38 99h75l-63 -136q63 -68 63 -149v-781q0 -210 -273 -224q-111 9 -163 38l-37 -99h-73zM210 148h188v622l-188 -523v-99zM210 459l188 521v100h-188v-621z" />
<glyph unicode="&#xf9;" d="M43 224v1005h170v-1079h188v1079h174v-1004q0 -207 -273 -227q-259 17 -259 226zM102 1326v150l398 -75v-136z" />
<glyph unicode="&#xfa;" d="M43 224v1005h170v-1079h188v1079h174v-1004q0 -207 -273 -227q-259 17 -259 226zM102 1265v136l398 75v-150z" />
<glyph unicode="&#xfb;" d="M43 224v1005h170v-1079h188v1079h174v-1004q0 -207 -273 -227q-259 17 -259 226zM102 1266v137l200 73l198 -73v-137l-198 62z" />
<glyph unicode="&#xfc;" d="M43 224v1005h170v-1079h188v1079h174v-1004q0 -207 -273 -227q-259 17 -259 226zM109 1265v174h174v-174h-174zM321 1265v174h174v-174h-174z" />
<glyph unicode="&#xfd;" horiz-adv-x="677" d="M27 749v480h171v-541h188v541h174v-480q0 -101 -72 -152q-27 -20 -102 -46v-551h-188v551q-73 24 -101 46q-70 51 -70 152zM94 1265v134l396 77v-150z" />
<glyph unicode="&#xfe;" horiz-adv-x="720" d="M24 -285v1799h186v-285h174q82 0 134 -64t52 -148v-869q0 -137 -186 -136h-174v-297h-186zM210 148h174v932h-174v-932z" />
<glyph unicode="&#xff;" horiz-adv-x="704" d="M43 749v480h172v-541h186v541h174v-480q0 -101 -72 -152q-27 -20 -102 -46v-551h-186v551q-73 24 -101 46q-72 51 -71 152zM116 1266v174h174v-174h-174zM328 1266v174h174v-174h-174z" />
<glyph unicode="&#x152;" horiz-adv-x="1024" d="M43 224v1066q0 123 92 181q68 43 169 43h633v-149h-360v-534h247v-148h-247v-535h360v-148h-633q-101 0 -169 43q-92 58 -92 181zM217 148h186v1217h-186v-1217z" />
<glyph unicode="&#x153;" horiz-adv-x="1025" d="M43 224v781q0 123 94 181q68 43 168 43h634v-149h-360v-392h247v-150h-247v-390h360v-148h-634q-101 0 -168 43q-94 58 -94 181zM217 148h187v932h-187v-932z" />
<glyph unicode="&#x178;" horiz-adv-x="704" d="M43 795v569h160v-625h171v625h170v-569q0 -92 -70 -140q-22 -15 -100 -42v-616h-171v616q-75 29 -94 42q-67 48 -66 140zM119 1398v160h159v-160h-159zM312 1398v160h159v-160h-159z" />
<glyph unicode="&#x2c6;" horiz-adv-x="353" />
<glyph unicode="&#x2dc;" horiz-adv-x="353" />
<glyph unicode="&#x2000;" horiz-adv-x="881" />
<glyph unicode="&#x2001;" horiz-adv-x="1763" />
<glyph unicode="&#x2002;" horiz-adv-x="881" />
<glyph unicode="&#x2003;" horiz-adv-x="1763" />
<glyph unicode="&#x2004;" horiz-adv-x="587" />
<glyph unicode="&#x2005;" horiz-adv-x="440" />
<glyph unicode="&#x2006;" horiz-adv-x="293" />
<glyph unicode="&#x2007;" horiz-adv-x="293" />
<glyph unicode="&#x2008;" horiz-adv-x="220" />
<glyph unicode="&#x2009;" horiz-adv-x="352" />
<glyph unicode="&#x200a;" horiz-adv-x="97" />
<glyph unicode="&#x2010;" horiz-adv-x="542" d="M26 546v137h360v-137h-360z" />
<glyph unicode="&#x2011;" horiz-adv-x="542" d="M26 546v137h360v-137h-360z" />
<glyph unicode="&#x2012;" horiz-adv-x="542" d="M26 546v137h360v-137h-360z" />
<glyph unicode="&#x2013;" horiz-adv-x="902" d="M26 546v137h720v-137h-720z" />
<glyph unicode="&#x2014;" horiz-adv-x="1261" d="M26 546v137h1078v-137h-1078z" />
<glyph unicode="&#x2018;" horiz-adv-x="365" d="M38 1154v360h174v-186z" />
<glyph unicode="&#x2019;" horiz-adv-x="354" d="M36 1154v174l188 186v-360h-188z" />
<glyph unicode="&#x201a;" horiz-adv-x="346" d="M38 12l174 174v-346h-174v172z" />
<glyph unicode="&#x201c;" horiz-adv-x="573" d="M26 1154v360h186v-186zM249 1154v360h174v-186z" />
<glyph unicode="&#x201d;" horiz-adv-x="578" d="M36 1154v174l172 186v-360h-172zM246 1154v174l186 186v-360h-186z" />
<glyph unicode="&#x201e;" horiz-adv-x="570" d="M26 12l186 174v-346h-186v172zM249 12l174 174v-346h-174v172z" />
<glyph unicode="&#x2022;" horiz-adv-x="1547" d="M17 756l84 84l-33 109h142l49 49l-100 140q196 152 432 191l182 185l190 -190q224 -46 411 -189l-91 -131l248 -248l-92 -92q-15 -72 -68 -125t-125 -68l-473 -471l-476 476h-84l-37 123zM38 756l128 -128l-11 38l-92 90l48 50l-5 18zM87 934l137 -442h92l51 114l53 -114 h99l60 187v-187h179v141h39v-141h179v134q63 -145 219 -145q97 0 165 67.5t68 164.5q0 96 -70.5 164t-167.5 68q-68 0 -127 -39t-87 -102v130h-179v-130h-39v130h-301l-32 -111l-65 117l-56 -117l-34 111h-183zM111 915h147l42 -145l62 128l66 -121l40 138h266v-132h85v132 h140v-412h-140v152h-85v-152h-140v306l-92 -306h-70l-65 147l-65 -147h-65zM179 1137l156 -215l8 20l-135 190q251 177 555 177q307 0 563 -183l-114 -167l20 -2l121 175q-263 198 -592 197q-326 0 -582 -192zM230 949h24l24 24l-10 13zM266 1123l106 -148q77 50 77 98 q0 38 -28 65.5t-66 27.5q-29 0 -89 -43zM319 476l454 -456l447 448q-12 -2 -25 -2l-422 -420l-442 442l-5 -12h-7zM336 1111q9 5 17 5q45 0 45 -44q0 -17 -12 -31zM379 937l8 -15q169 114 378 114q181 0 338 -91l23 7q-167 102 -361 103q-210 0 -386 -118zM422 418l10 -10 q26 15 63 15q60 0 106 -46l177 -177l173 177q46 46 105 46q34 0 60 -13l10 8q-32 19 -75 19q-60 0 -100 -41l-173 -176l-177 176q-41 41 -101 41q-46 0 -78 -19zM445 1150q0 -41 29 -69t70 -28t69.5 28t28.5 69q0 39 -30 67.5t-69 28.5q-41 0 -69.5 -28t-28.5 -68zM497 1150 q0 46 46 46q48 0 48 -46q0 -48 -47 -47q-48 0 -47 47zM616 1335l27 3l130 130l133 -133l31 -6l-164 164zM640 379l9 -9q58 55 124 55q75 0 135 -53l8 10q-63 56 -143 57q-70 0 -133 -60zM649 1181q0 -41 29 -68.5t68 -27.5q17 0 32 7v45q-10 -3 -22 -4q-58 0 -58 48 q0 46 48 46q19 0 34 -5l2 46q-17 7 -38 7q-39 0 -67 -27.5t-28 -66.5zM794 1225l39 -3l-14 -135l51 -5l14 133l38 -3l5 44l-128 14zM906 1142q0 -39 29 -68.5t70 -29.5q39 0 67.5 29.5t28.5 68.5q0 41 -29 69t-68 28q-41 0 -69.5 -28t-28.5 -69zM956 1142q0 48 48 48 q47 0 47 -48q0 -46 -47 -46q-48 0 -48 46zM980 713q0 89 61.5 150.5t148.5 61.5q89 0 152 -62.5t63 -149.5q0 -89 -61.5 -150t-150.5 -61q-87 0 -150 62t-63 149zM1067 1026l42 -21l31 58l3 -75l53 -27l-5 83q58 0 58 55q0 31 -39 55q-31 15 -63 30zM1118 713q0 -31 23 -52 t54 -21t52 21t21 52t-22 53t-53 22t-53 -22t-22 -53zM1135 713q0 58 58 58t58 -58t-58 -58t-58 58zM1155 1096l16 30q29 -13 29 -23q0 -17 -19 -18q-3 0 -26 11zM1265 976q14 -15 42 -44q20 -12 60 -43q20 -19 36 -42q3 -9 12 -19l70 -72l-43 -41l2 -3q0 -9 -2 -24l68 68 l-235 236z" />
<glyph unicode="&#x2026;" horiz-adv-x="779" d="M38 0v186h174v-186h-174zM247 0v186h188v-186h-188zM471 0v186h174v-186h-174z" />
<glyph unicode="&#x202f;" horiz-adv-x="352" />
<glyph unicode="&#x2039;" horiz-adv-x="525" d="M26 608l186 186h174l-174 -186l174 -175h-174z" />
<glyph unicode="&#x203a;" horiz-adv-x="513" d="M38 433l172 175l-172 186h172l186 -186l-186 -175h-172z" />
<glyph unicode="&#x205f;" horiz-adv-x="440" />
<glyph unicode="&#x2122;" horiz-adv-x="860" d="M26 1440v74h273v-74h-87v-682h-87v682h-99zM336 758v756h87l87 -248l99 248h87v-756h-87v558l-99 -236l-87 236v-558h-87z" />
<glyph unicode="&#x25fc;" horiz-adv-x="1228" d="M0 0v1229h1229v-1229h-1229z" />
</font>
</defs>
</svg>
